<svg width="80" height="80" viewBox="0 0 80 80" fill="none" xmlns="http://www.w3.org/2000/svg">
<g clip-path="url(#clip0_1_2)">
<path d="M59.75 5.75C54.85 4.58333 48.2667 4 40 4C31.7 4 25.1167 4.58333 20.25 5.75C15.0167 7.01667 10.9333 9.1 8 12C5.1 14.9333 3.01667 19.0167 1.75 24.25C0.716671 28.65 0.150003 34.4 0.0500031 41.5C0.0500031 41.8333 0.0500031 42.1667 0.0500031 42.5C0.150003 49.6 0.716671 55.35 1.75 59.75C3.01667 65.0167 5.1 69.1 8 72C10.9333 74.9334 15.0167 77.0167 20.25 78.25C25.1167 79.4167 31.7 80 40 80C48.2667 80 54.85 79.4167 59.75 78.25C65.0167 77.0167 69.1 74.9334 72 72C74.9333 69.1 77.0167 65.0167 78.25 59.75C79.2833 55.4167 79.8667 49.75 80 42.75C80 42.65 80 42.5667 80 42.5V41.25C79.8667 34.25 79.2833 28.5833 78.25 24.25C77.0167 19.0167 74.9333 14.9333 72 12C69.1 9.1 65.0167 7.01667 59.75 5.75Z" fill="url(#paint0_linear_1_2)"/>
<path d="M59.75 1.75C54.85 0.583334 48.2667 0 40 0C31.7 0 25.1167 0.583334 20.25 1.75C15.0167 3.01667 10.9333 5.1 8 8C5.1 10.9333 3.01667 15.0167 1.75 20.25C0.583333 25.15 0 31.7333 0 40C0 40.5 0.0166659 41 0.0499992 41.5C0.149999 34.4 0.716667 28.65 1.75 24.25C3.01667 19.0167 5.1 14.9333 8 12C10.9333 9.1 15.0167 7.01667 20.25 5.75C25.1167 4.58333 31.7 4 40 4C48.2667 4 54.85 4.58333 59.75 5.75C65.0167 7.01667 69.1 9.1 72 12C74.9333 14.9333 77.0167 19.0167 78.25 24.25C79.2833 28.5833 79.8667 34.25 80 41.25C80 40.85 80 40.4333 80 40C80 31.7333 79.4167 25.15 78.25 20.25C77.0167 15.0167 74.9333 10.9333 72 8C69.1 5.1 65.0167 3.01667 59.75 1.75Z" fill="url(#paint1_linear_1_2)"/>
<path d="M16.8458 29.9701C14.7615 32.0544 13.7194 34.5449 13.7194 37.4417C13.7194 40.3738 14.7615 42.8644 16.8458 44.9133C18.8948 46.9976 21.3853 48.0398 24.3175 48.0398C27.2496 48.0398 29.7401 46.9976 31.7891 44.9133C33.8734 42.8644 34.9155 40.3738 34.9155 37.4417C34.9155 34.5449 33.8734 32.0544 31.7891 29.9701C29.7401 27.8858 27.2496 26.8436 24.3175 26.8436C21.3853 26.8436 18.8948 27.8858 16.8458 29.9701Z" fill="white"/>
<path d="M19.8663 32.9905C18.5945 34.227 17.9586 35.7107 17.9586 37.4417C17.9586 39.2081 18.5945 40.7095 19.8663 41.9459C21.1027 43.1823 22.5864 43.8006 24.3175 43.8006C26.0838 43.8006 27.5852 43.1823 28.8216 41.9459C30.0581 40.7095 30.6763 39.2081 30.6763 37.4417C30.6763 35.7107 30.0581 34.227 28.8216 32.9905C27.5852 31.7188 26.0838 31.0829 24.3175 31.0829C22.5864 31.0829 21.1027 31.7188 19.8663 32.9905Z" fill="#27282C"/>
<path d="M48.64 29.9701C46.5557 32.0544 45.5135 34.5449 45.5135 37.4417C45.5135 40.3738 46.5557 42.8644 48.64 44.9133C50.6889 46.9976 53.1795 48.0398 56.1116 48.0398C59.0437 48.0398 61.5343 46.9976 63.5832 44.9133C65.6675 42.8644 66.7097 40.3738 66.7097 37.4417C66.7097 34.5449 65.6675 32.0544 63.5832 29.9701C61.5343 27.8858 59.0437 26.8436 56.1116 26.8436C53.1795 26.8436 50.6889 27.8858 48.64 29.9701Z" fill="white"/>
<path d="M51.6605 32.9905C50.3887 34.227 49.7528 35.7107 49.7528 37.4417C49.7528 39.2081 50.3887 40.7095 51.6605 41.9459C52.8969 43.1823 54.3806 43.8006 56.1116 43.8006C57.878 43.8006 59.3794 43.1823 60.6158 41.9459C61.8523 40.7095 62.4705 39.2081 62.4705 37.4417C62.4705 35.7107 61.8523 34.227 60.6158 32.9905C59.3794 31.7188 57.878 31.0829 56.1116 31.0829C54.3806 31.0829 52.8969 31.7188 51.6605 32.9905Z" fill="#27282C"/>
<path d="M11.7587 30.182C12.006 30.6766 12.43 30.9946 13.0305 31.1359L33.4848 36.6469C34.05 36.7882 34.5976 36.7175 35.1275 36.4349C35.622 36.1523 35.94 35.7107 36.0813 35.1101L37.1941 31.0299C37.3354 30.4293 37.2648 29.8994 36.9821 29.4402C36.6642 28.9103 36.2226 28.5747 35.6574 28.4334L15.2031 22.9224C14.6026 22.7811 14.0727 22.8694 13.6134 23.1873C13.0835 23.4346 12.7479 23.8585 12.6066 24.4591L11.4938 28.5393C11.3525 29.1399 11.4408 29.6875 11.7587 30.182Z" fill="#27282C"/>
<path d="M45.3016 36.4349C45.8315 36.7175 46.3791 36.7882 46.9443 36.6469L67.3986 31.1359C67.9992 30.9946 68.4231 30.6766 68.6704 30.182C68.9883 29.6875 69.0766 29.1399 68.9353 28.5393L67.8225 24.4591C67.6812 23.8585 67.3456 23.4346 66.8157 23.1873C66.3565 22.8694 65.8266 22.7811 65.226 22.9224L44.7717 28.4334C44.2065 28.5747 43.7649 28.9103 43.447 29.4402C43.1644 29.8994 43.0937 30.4293 43.235 31.0299L44.3478 35.1101C44.4891 35.7107 44.8071 36.1523 45.3016 36.4349Z" fill="#27282C"/>
<path d="M50.1237 53.8687C50.5477 53.4801 50.7773 53.0032 50.8126 52.438C50.8479 51.8374 50.6713 51.3252 50.2827 50.9012C49.8941 50.442 49.4172 50.1947 48.852 50.1594C48.2514 50.1241 47.7392 50.3007 47.3153 50.6893C47.0326 50.9366 46.7324 51.1839 46.4144 51.4312H46.3614C44.6657 52.7029 42.6168 53.3388 40.2146 53.3388C37.7417 53.3388 35.6397 52.7029 33.9087 51.4312C33.6967 51.2545 33.5024 51.0779 33.3258 50.9012C32.9372 50.442 32.4603 50.1947 31.8951 50.1594C31.2945 50.1241 30.7823 50.3007 30.3584 50.6893C29.8991 51.0779 29.6518 51.5725 29.6165 52.173C29.5812 52.7382 29.7578 53.2505 30.1464 53.7097C30.4643 54.063 30.8529 54.4163 31.3122 54.7695C31.3475 54.7695 31.3652 54.7872 31.3652 54.8225C33.8027 56.6595 36.7525 57.578 40.2146 57.578C43.6059 57.578 46.5027 56.6772 48.905 54.8755V54.8225C49.3289 54.5046 49.7351 54.1866 50.1237 53.8687Z" fill="#27282C"/>
</g>
<defs>
<linearGradient id="paint0_linear_1_2" x1="-140" y1="-9.12892e-07" x2="-140" y2="80" gradientUnits="userSpaceOnUse">
<stop stop-color="#4DD465"/>
<stop offset="1" stop-color="#21BC38"/>
</linearGradient>
<linearGradient id="paint1_linear_1_2" x1="-140.25" y1="-0.25" x2="-140.25" y2="43.25" gradientUnits="userSpaceOnUse">
<stop stop-color="#71E786"/>
<stop offset="1" stop-color="#29B844"/>
</linearGradient>
<clipPath id="clip0_1_2">
<rect width="80" height="80" fill="white"/>
</clipPath>
</defs>
</svg>
